<?xml version="1.0" standalone="no"?>
<!DOCTYPE svg PUBLIC "-//W3C//DTD SVG 1.1//EN" "http://www.w3.org/Graphics/SVG/1.1/DTD/svg11.dtd" >
<svg xmlns="http://www.w3.org/2000/svg" xmlns:xlink="http://www.w3.org/1999/xlink" version="1.1">
<metadata></metadata>
<defs>
<font id="unimed_slabitalic" horiz-adv-x="1179" >
<font-face units-per-em="2048" ascent="1536" descent="-512" />
<missing-glyph horiz-adv-x="473" />
<glyph unicode="&#xfb01;" horiz-adv-x="1241" d="M-279 -477l29 127q95 -25 150 -25q98 0 152 50.5t69 154.5l147 1069h-4l-151 14l16 111h158l24 172q23 163 119 251.5t250 88.5q129 0 225 -35l-37 -127q-91 25 -149 25q-194 0 -221 -223l-23 -152h649l-112 -754q-8 -44 -8 -80q0 -79 83 -79h58l-17 -103 q-72 -33 -139 -33q-178 0 -178 170q0 33 6 80l103 674h-461l-150 -1069q-25 -176 -115 -259t-255 -83q-122 0 -218 35zM954 1337q0 56 39.5 102t110.5 46q53 0 84 -29.5t31 -77.5q0 -66 -42 -106.5t-108 -40.5q-52 0 -83.5 29t-31.5 77z" />
<glyph unicode="&#xfb02;" horiz-adv-x="1212" d="M-279 -477l37 127q91 -25 150 -25q99 0 152.5 49t68.5 156l147 1069l-157 14l16 111h160l20 156q26 186 131 271t304 85q184 0 405 -80l-172 -1169q-8 -57 -8 -97q0 -79 84 -79h57l-16 -103q-72 -33 -139 -33q-179 0 -179 170q0 18 9 88l159 1125q-102 41 -211 41 q-203 0 -233 -221l-23 -154h244l-16 -125h-244l-150 -1069q-25 -178 -114.5 -260t-255.5 -82q-130 0 -226 35z" />
<glyph horiz-adv-x="0" />
<glyph horiz-adv-x="682" />
<glyph unicode=" "  horiz-adv-x="473" />
<glyph unicode="&#x09;" horiz-adv-x="473" />
<glyph unicode="&#xa0;" horiz-adv-x="473" />
<glyph unicode="!" horiz-adv-x="399" d="M16 80q0 62 40.5 102.5t101.5 40.5q49 0 78.5 -29t29.5 -75q0 -61 -40.5 -102.5t-100.5 -41.5q-49 0 -79 30t-30 75zM123 440l72 686l43 308h186l-45 -308l-123 -686h-133z" />
<glyph unicode="&#x22;" horiz-adv-x="782" d="M178 1077l31 332l16 125h187l-19 -125l-65 -332h-150zM612 1077l29 332l16 125h187l-17 -125l-65 -332h-150z" />
<glyph unicode="#" horiz-adv-x="1396" d="M27 416l39 131h268l106 368h-282l41 132h278l115 389h184l-112 -389h307l112 389h185l-113 -389h279l-37 -132h-281l-106 -368h299l-39 -131h-297l-121 -416h-186l120 416h-305l-121 -416h-186l121 416h-268zM518 547h307l107 368h-307z" />
<glyph unicode="$" horiz-adv-x="1112" d="M41 113l68 383h131l-29 -295q130 -47 268 -47q147 0 234.5 71t87.5 189q0 83 -73 132t-234 101q-68 21 -119.5 47t-97.5 65t-70.5 95.5t-24.5 128.5q0 167 125.5 285t317.5 135l22 203h144l-35 -205q194 -15 340 -86l-68 -385h-135l29 303q-115 43 -246 43 q-129 0 -215 -74t-86 -186q0 -95 71 -149t201 -91q87 -26 145.5 -51.5t110 -64t76.5 -92t25 -124.5q0 -178 -118 -290t-323 -134l-26 -219h-144l37 215q-99 4 -210 32t-179 65z" />
<glyph unicode="%" horiz-adv-x="1736" d="M131 0l4 27l1307 1407h182l-4 -25l-1301 -1409h-188zM141 1085q0 160 104 266.5t259 106.5q126 0 199 -69t73 -189q0 -160 -103 -267.5t-257 -107.5q-127 0 -201 69.5t-74 190.5zM295 1071q0 -72 34 -111.5t97 -39.5q56 0 103 47t71.5 114t24.5 133q0 71 -36 110.5 t-100 39.5q-56 0 -102 -47t-69 -113t-23 -133zM1018 236q0 160 103.5 266t258.5 106q126 0 199.5 -69t73.5 -189q0 -160 -103.5 -267.5t-257.5 -107.5q-126 0 -200 70t-74 191zM1169 221q0 -71 35.5 -111t98.5 -40q56 0 102.5 47.5t71 114.5t24.5 133q0 70 -36 109.5 t-99 39.5q-57 0 -103.5 -47t-70 -113t-23.5 -133z" />
<glyph unicode="&#x26;" horiz-adv-x="1517" d="M82 340q0 80 27 149.5t78.5 124.5t109.5 96.5t135 82.5q-16 98 -16 186q0 217 121.5 348t322.5 131q131 0 212 -69t81 -181q0 -37 -9 -70.5t-29.5 -63.5t-42 -55.5t-58 -51.5t-65 -45.5t-76 -44t-78.5 -40t-84 -41t-82 -40.5q41 -139 120 -262.5t183 -212.5 q128 131 178 337h-166l14 107h469l-14 -107h-158q-58 -243 -219 -415q150 -94 303 -97l-20 -131q-223 0 -416 115q-174 -115 -383 -115q-193 0 -315.5 100t-122.5 265zM266 356q0 -114 78 -179.5t203 -65.5q128 0 241 61q-112 93 -194 220.5t-127 271.5q-201 -134 -201 -308 zM594 1001q0 -55 10 -127q194 87 259 127q141 91 143 191q0 62 -42 99.5t-108 37.5q-119 0 -190.5 -89.5t-71.5 -238.5z" />
<glyph unicode="'" horiz-adv-x="350" d="M178 1077l31 332l16 125h187l-19 -125l-65 -332h-150z" />
<glyph unicode="(" horiz-adv-x="606" d="M78 381q0 156 28 320t86 336t159 342.5t235 312.5l121 -54q-117 -144 -204.5 -320t-135.5 -349.5t-70.5 -331t-22.5 -301.5q0 -368 158 -651l-133 -54q-221 334 -221 750z" />
<glyph unicode=")" horiz-adv-x="606" d="M-59 -315q117 144 204 320t135 349.5t70.5 331t22.5 301.5q0 363 -158 651l133 54q221 -329 221 -750q0 -156 -28 -320t-86 -336t-159 -342.5t-235 -312.5z" />
<glyph unicode="*" horiz-adv-x="1083" d="M193 1206l83 135l295 -202l33 395h156l-78 -399l352 204l51 -135l-385 -155l220 -285l-134 -96l-180 311l-276 -322l-103 95l295 290z" />
<glyph unicode="+" horiz-adv-x="1230" d="M47 475l21 135h473l67 475h176l-65 -475h475l-20 -135h-474l-67 -475h-176l65 475h-475z" />
<glyph unicode="," horiz-adv-x="299" d="M-111 -332q142 175 142 365q0 31 -15 104l174 43q17 -60 17 -112q0 -115 -51.5 -224t-173.5 -231z" />
<glyph unicode="-" horiz-adv-x="917" d="M68 446l20 136h764l-21 -136h-763z" />
<glyph unicode="." horiz-adv-x="407" d="M20 80q0 62 40.5 102.5t101.5 40.5q49 0 78.5 -29t29.5 -75q0 -61 -40.5 -102.5t-100.5 -41.5q-49 0 -79 30t-30 75z" />
<glyph unicode="/" horiz-adv-x="772" d="M-61 -264l735 1749h186l-733 -1749h-188z" />
<glyph unicode="0" horiz-adv-x="1261" d="M94 520q0 271 86.5 485.5t240.5 333.5t347 119q216 0 334.5 -143.5t118.5 -403.5q0 -280 -83 -492.5t-235.5 -328t-353.5 -115.5q-215 0 -335 143.5t-120 401.5zM291 520q0 -191 73 -294t207 -103q133 0 236 98.5t160 277t57 408.5q0 196 -73.5 300t-209.5 104 q-124 0 -228 -107.5t-163 -289t-59 -394.5z" />
<glyph unicode="1" horiz-adv-x="942" d="M-25 0l19 131h344l162 1159h-359l17 115l413 29h138l-183 -1303h320l-19 -131h-852z" />
<glyph unicode="2" horiz-adv-x="1187" d="M-8 0l20 141q127 83 216.5 144t195 137t176.5 136t142.5 129.5t113.5 129.5t68 124.5t26 125.5q0 112 -83.5 179t-231.5 67q-119 0 -281 -31l-69 -293h-148l56 402q279 67 495 67q220 0 344.5 -100t124.5 -268q0 -114 -48 -218t-162 -220t-277.5 -238t-417.5 -285h631 l61 285h135l-51 -414h-1036z" />
<glyph unicode="3" d="M16 33l60 377h139l-18 -265q129 -30 282 -30q186 0 297 89t111 238q0 112 -84 178t-234 66h-116l20 135h115h14q158 0 248 74.5t90 200.5q0 105 -74.5 162t-216.5 57q-110 0 -274 -25l-60 -301h-151l57 414q245 55 465 55q209 0 323.5 -86t114.5 -242q0 -122 -65.5 -216 t-188.5 -146q105 -46 161 -127t56 -188q0 -220 -164 -349t-448 -129q-239 0 -459 58z" />
<glyph unicode="4" horiz-adv-x="1249" d="M37 451l18 133l844 850h186l-118 -848h250l-21 -135h-250l-43 -320h250l-18 -131h-748l19 131h311l45 320h-725zM248 586h532l88 622z" />
<glyph unicode="5" horiz-adv-x="1198" d="M41 51l55 367h146l-17 -273q150 -30 271 -30q182 0 289.5 92.5t107.5 249.5q0 126 -87.5 202t-234.5 76q-58 0 -116.5 -8.5t-90 -16t-100.5 -26.5l-108 39l102 711h897l-63 -433h-146l19 302h-547l-66 -465q153 36 289 36q209 0 332 -107t123 -290q0 -232 -162 -367 t-440 -135q-243 0 -453 76z" />
<glyph unicode="6" horiz-adv-x="1241" d="M98 569q0 266 92.5 468.5t262 312.5t391.5 110q160 0 373 -51l-58 -405h-145l14 290q-95 21 -194 21q-106 0 -196 -42t-154.5 -116t-108.5 -173t-64 -216q183 102 406 102q201 0 318.5 -104t117.5 -274q0 -226 -156 -371.5t-397 -145.5q-223 0 -362.5 163.5t-139.5 430.5 zM295 567q0 -199 90.5 -322.5t230.5 -123.5q146 0 242 98.5t96 247.5q0 117 -77 186.5t-215 69.5q-204 0 -365 -107z" />
<glyph unicode="7" horiz-adv-x="1087" d="M139 1001l62 433h973l-23 -150q-124 -137 -236 -281.5t-218.5 -309.5t-188 -344t-123.5 -349h-205q41 173 124.5 355.5t196.5 353.5t219.5 309.5t233.5 284.5h-602l-67 -302h-146z" />
<glyph unicode="8" horiz-adv-x="1220" d="M63 367q0 128 64.5 241.5t185.5 196.5q-94 84 -94 219q0 188 144.5 311t369.5 123q191 0 310.5 -96t119.5 -246q0 -243 -235 -399q93 -46 144.5 -113t51.5 -172q0 -206 -155 -331.5t-414 -125.5q-226 0 -359 105t-133 287zM246 393q0 -125 88.5 -199.5t234.5 -74.5 q160 0 254.5 79.5t94.5 213.5q0 57 -30.5 99t-87 71t-114.5 49.5t-136.5 47.5t-129.5 52q-90 -78 -132 -159.5t-42 -178.5zM420 1057q0 -26 6 -49.5t14.5 -42.5t26.5 -37t31.5 -30.5t40.5 -27t44 -23t50.5 -21.5t51 -19t56 -18.5t54.5 -18.5q192 155 192 336q0 97 -74.5 160 t-191.5 63q-130 0 -215.5 -77.5t-85.5 -194.5z" />
<glyph unicode="9" horiz-adv-x="1241" d="M74 33l57 397h143l-12 -289q87 -22 205 -22q132 0 241 75t178 196.5t99 275.5q-181 -101 -393 -101q-202 0 -324.5 104.5t-122.5 272.5q0 229 150.5 373.5t396.5 144.5q225 0 366.5 -160t141.5 -434q0 -192 -55 -357.5t-152.5 -282.5t-236 -184t-299.5 -67 q-206 0 -383 58zM346 967q0 -115 82 -185.5t219 -70.5q190 0 354 106l3 49q0 208 -89.5 328.5t-232.5 120.5q-153 0 -244.5 -97.5t-91.5 -250.5z" />
<glyph unicode=":" horiz-adv-x="409" d="M23 80q0 62 40.5 102.5t100.5 40.5q49 0 78.5 -29t29.5 -75q0 -61 -40.5 -102.5t-100.5 -41.5q-49 0 -78.5 30t-29.5 75zM125 813q0 63 40.5 104t100.5 41q49 0 79 -30t30 -76q0 -61 -41 -102t-101 -41q-49 0 -78.5 29.5t-29.5 74.5z" />
<glyph unicode=";" horiz-adv-x="399" d="M-55 -332q141 174 141 365q0 49 -14 104l176 43q14 -49 14 -112q0 -116 -51 -225t-172 -230zM109 799q0 61 40.5 102t100.5 41q49 0 78.5 -29.5t29.5 -74.5q0 -63 -41.5 -104.5t-101.5 -41.5q-49 0 -77.5 30t-28.5 77z" />
<glyph unicode="&#x3c;" horiz-adv-x="1183" d="M70 408l22 172l1079 432l-22 -158l-897 -360l799 -340l-23 -154z" />
<glyph unicode="=" horiz-adv-x="1284" d="M49 186l21 138h1091l-18 -138h-1094zM123 702l20 136h1092l-21 -136h-1091z" />
<glyph unicode="&#x3e;" horiz-adv-x="1185" d="M12 0l23 160l897 360l-801 338l23 154l960 -406l-24 -172z" />
<glyph unicode="?" horiz-adv-x="1007" d="M158 1008l35 378q232 66 444 66q181 0 282 -81.5t101 -227.5q0 -83 -30 -151.5t-78.5 -115.5t-107 -87.5t-116.5 -75.5t-106.5 -71t-78.5 -83t-30 -102q0 -24 8 -64l-153 -26q-23 59 -23 114q0 65 28.5 120.5t74.5 95.5t101 76t110 71.5t101 72.5t74.5 87.5t28.5 109.5 q0 92 -62.5 142.5t-176.5 50.5q-105 0 -246 -31l-51 -268h-129zM260 80q0 62 40 102.5t101 40.5q49 0 79 -29t30 -75q0 -61 -40.5 -102.5t-100.5 -41.5q-49 0 -79 30t-30 75z" />
<glyph unicode="@" horiz-adv-x="2217" d="M66 303q0 245 97 459.5t265 366.5t404.5 239.5t506.5 87.5q179 0 331.5 -51t260 -142t168 -221t60.5 -282q0 -216 -81.5 -389.5t-224 -271t-317.5 -97.5q-114 0 -190 57.5t-95 155.5q-130 -172 -323 -172q-140 0 -223.5 90.5t-83.5 243.5q0 169 79 305.5t218 212.5 t311 76q174 0 348 -76l-127 -449q-27 -106 -27 -153q0 -73 44 -116.5t118 -43.5q79 0 149.5 45.5t123 125t83.5 195t31 249.5q0 172 -85 303t-237.5 201.5t-349.5 70.5q-220 0 -414.5 -76.5t-333.5 -209t-219.5 -320t-80.5 -400.5q0 -277 164 -433t436 -156q132 0 295 30 l-27 -120q-198 -50 -356 -50q-318 0 -508 190t-190 525zM807 381q0 -92 49.5 -145.5t130.5 -53.5q88 0 170.5 73.5t112.5 174.5l114 404q-72 16 -145 16q-182 0 -307 -135t-125 -334z" />
<glyph unicode="A" horiz-adv-x="1521" d="M-47 0l18 131h183l563 1172h-185l19 131h475l234 -1303h184l-19 -131h-548l18 131h168l-59 340h-515l-159 -340h170l-19 -131h-528zM555 606h426l-113 664z" />
<glyph unicode="B" horiz-adv-x="1271" d="M-23 0l19 131h180l164 1172h-180l18 131h645q176 0 272.5 -79t96.5 -222q0 -134 -62.5 -226.5t-177.5 -130.5q114 -31 179 -112.5t65 -196.5q0 -218 -139 -342.5t-385 -124.5h-695zM371 131h260q175 0 270.5 88.5t95.5 249.5q0 107 -76.5 171.5t-205.5 64.5h-264z M469 842h260q122 0 199.5 73.5t77.5 198.5q0 89 -60.5 139t-169.5 50h-241z" />
<glyph unicode="C" horiz-adv-x="1316" d="M86 588q0 188 64 350t176 276t269 179t337 65q236 0 444 -61l-69 -447h-152l19 328q-142 33 -256 33q-178 0 -321 -90.5t-224.5 -253t-81.5 -367.5q0 -223 129 -350t344 -127q112 0 202.5 17t221.5 57l26 -129q-140 -48 -253.5 -70.5t-249.5 -22.5q-282 0 -453.5 164 t-171.5 449z" />
<glyph unicode="D" horiz-adv-x="1413" d="M-23 0l19 131h180l164 1172h-180l18 131h582q297 0 460.5 -152.5t163.5 -429.5q0 -396 -216 -624t-595 -228h-596zM369 131h211q284 0 444 189t160 530q0 218 -120.5 335.5t-344.5 117.5h-187z" />
<glyph unicode="E" horiz-adv-x="1204" d="M-23 0l19 131h168l164 1172h-168l18 131h1082l-64 -441h-147l22 310h-551l-74 -523h443l-21 -135h-440l-72 -514h559l62 291h149l-59 -422h-1090z" />
<glyph unicode="F" horiz-adv-x="1155" d="M-23 0l19 131h180l164 1172h-180l18 131h1049l-60 -420h-147l20 289h-508l-75 -547h477l-19 -135h-477l-69 -490h209l-19 -131h-582z" />
<glyph unicode="G" horiz-adv-x="1427" d="M88 584q0 186 64 348.5t176 278t270 181.5t340 66q242 0 494 -63l-68 -463h-152l17 344q-155 35 -301 35q-136 0 -255 -54.5t-203 -149t-132.5 -226.5t-48.5 -283q0 -217 127 -346t342 -129q162 0 325 55l50 359h-318l21 137h503l-16 -105l-68 -491q-155 -52 -275 -77.5 t-265 -25.5q-283 0 -455 167t-172 442z" />
<glyph unicode="H" horiz-adv-x="1566" d="M-23 0l19 131h180l164 1172h-180l18 131h553l-18 -131h-181l-71 -521h721l71 521h-178l19 131h551l-19 -131h-178l-164 -1172h178l-18 -131h-551l18 131h181l71 514h-723l-71 -514h180l-19 -131h-553z" />
<glyph unicode="I" horiz-adv-x="651" d="M-23 0l19 131h180l164 1172h-180l18 131h553l-18 -131h-181l-163 -1172h180l-19 -131h-553z" />
<glyph unicode="J" horiz-adv-x="800" d="M-47 0l16 123h162q195 0 229 227l134 953h-195l18 131h568l-19 -131h-178l-137 -973q-26 -185 -118.5 -270t-262.5 -85q-104 0 -217 25z" />
<glyph unicode="K" horiz-adv-x="1486" d="M-23 0l19 131h180l164 1172h-180l18 131h553l-18 -131h-181l-83 -611l722 611h-163l18 131h545l-19 -131h-168l-571 -478l424 -694h156l-19 -131h-547l19 131h172l-348 578l-250 -209l-51 -369h180l-19 -131h-553z" />
<glyph unicode="L" horiz-adv-x="1206" d="M-23 0l19 131h180l164 1172h-180l18 131h586l-19 -131h-213l-163 -1172h553l59 291h152l-60 -422h-1096z" />
<glyph unicode="M" horiz-adv-x="2127" d="M-35 0l19 131h174l334 1172h-173l19 131h475l211 -1215l575 1215h467l-18 -131h-184v-1172h172l-19 -131h-530l18 131h164v1094l-590 -1225h-219l-217 1243l-324 -1112h154l-18 -131h-490z" />
<glyph unicode="N" horiz-adv-x="1525" d="M-14 0l18 131h180l164 1172h-180l18 131h373l531 -1127l139 996h-178l18 131h543l-19 -131h-182l-182 -1303h-178l-541 1157l-143 -1026h178l-19 -131h-540z" />
<glyph unicode="O" horiz-adv-x="1478" d="M86 553q0 199 57.5 367.5t161 286.5t251 184.5t321.5 66.5q274 0 423.5 -150t149.5 -425q0 -271 -98.5 -477t-278.5 -318.5t-416 -112.5q-259 0 -415 158.5t-156 419.5zM287 567q0 -203 106.5 -323.5t286.5 -120.5q254 0 411.5 205.5t157.5 541.5q0 210 -103.5 325.5 t-293.5 115.5q-163 0 -292 -96t-201 -265.5t-72 -382.5z" />
<glyph unicode="P" horiz-adv-x="1232" d="M-23 0l19 131h180l164 1172h-180l18 131h621q204 0 316 -96t112 -271q0 -224 -144 -352.5t-393 -128.5h-258l-63 -455h200l-18 -131h-574zM453 723h237q160 0 249 87.5t89 248.5q0 115 -74.5 179.5t-212.5 64.5h-209z" />
<glyph unicode="Q" horiz-adv-x="1478" d="M84 553q0 265 99.5 471t280 320t413.5 114q274 0 423.5 -150.5t149.5 -424.5q0 -253 -86.5 -450.5t-246 -314.5t-372.5 -138q48 -104 176 -147q120 -40 314 -40h27l-39 -166q-309 0 -467 92t-172 261q-228 22 -364 176.5t-136 396.5zM287 567q0 -203 106.5 -323.5 t286.5 -120.5q167 0 296.5 94t201 264t71.5 389q0 210 -103.5 325.5t-293.5 115.5q-163 0 -292 -96t-201 -265.5t-72 -382.5z" />
<glyph unicode="R" horiz-adv-x="1351" d="M-23 0l19 131h180l164 1172h-180l18 131h680q198 0 310 -96.5t112 -272.5q0 -165 -88.5 -283t-243.5 -166l119 -485h186l-18 -131h-332l-133 588h-25h-313l-63 -457h180l-19 -131h-553zM453 723h290q153 0 245.5 91.5t92.5 244.5q0 116 -71.5 180t-198.5 64h-279z" />
<glyph unicode="S" horiz-adv-x="1206" d="M49 55l68 383h143l-29 -278q148 -41 293 -41q169 0 268 74.5t99 209.5q0 41 -17.5 73.5t-37.5 53.5t-70.5 44.5t-81 34.5t-104.5 35q-7 3 -11 4t-10.5 3t-11.5 4q-63 20 -110 38.5t-99.5 49.5t-86 66.5t-55.5 88.5t-22 116q0 86 37 164.5t106 141.5t179 100.5t245 37.5 q244 0 461 -59l-72 -406h-145l27 293q-155 33 -287 33q-160 0 -257 -79t-97 -193q0 -30 7 -55.5t23.5 -47t32.5 -38t46 -32.5t50.5 -26.5t59 -23.5t59.5 -19t64 -19q78 -26 132 -48t105.5 -53.5t82 -66t49 -82t18.5 -106.5q0 -98 -35.5 -180t-105 -144t-180.5 -96.5 t-253 -34.5q-126 0 -258 23t-219 57z" />
<glyph unicode="T" horiz-adv-x="1347" d="M125 997l61 437h1233l-59 -439h-150l23 308h-350l-164 -1172h213l-19 -131h-618l18 131h213l164 1172h-354l-64 -306h-147z" />
<glyph unicode="U" horiz-adv-x="1542" d="M154 1303l18 131h553l-18 -131h-181l-108 -766q-10 -72 -10 -125q0 -140 80 -216.5t227 -76.5q355 0 407 387l113 797h-178l18 131h551l-18 -131h-178l-113 -791q-73 -537 -617 -537q-236 0 -361.5 109t-125.5 313q0 32 12 146l109 760h-180z" />
<glyph unicode="V" horiz-adv-x="1501" d="M135 1303l19 131h555l-19 -131h-178l180 -1139l533 1139h-172l18 131h535l-19 -131h-176l-631 -1303h-250l-217 1303h-178z" />
<glyph unicode="W" horiz-adv-x="2179" d="M160 1303l18 131h557l-16 -134h-180l90 -1136l522 1270h197l131 -1274l430 1143h-178l18 131h532l-18 -131h-184l-502 -1303h-262l-115 1178l-479 -1178h-260l-119 1303h-182z" />
<glyph unicode="X" horiz-adv-x="1572" d="M-41 0l18 131h170l541 608l-350 564h-176l18 131h596l-16 -131h-187l285 -463l404 463h-181l19 131h571l-18 -131h-180l-535 -594l356 -578h174l-18 -131h-588l19 131h188l-297 475l-412 -475h168l-18 -131h-551z" />
<glyph unicode="Y" horiz-adv-x="1423" d="M135 1303l19 131h567l-19 -131h-174l232 -576l395 576h-166l19 131h520l-19 -131h-174l-526 -740l-59 -432h211l-19 -131h-618l18 131h213l61 432l-301 740h-180z" />
<glyph unicode="Z" horiz-adv-x="1251" d="M-2 0l18 141l1024 1159h-673l-64 -307h-149l63 441h1079l-18 -138l-1030 -1165h719l61 299h143l-61 -430h-1112z" />
<glyph unicode="[" horiz-adv-x="667" d="M35 -360l289 2050h473l-19 -136h-289l-249 -1779h288l-18 -135h-475z" />
<glyph unicode="\" horiz-adv-x="1263" d="M186 1485h187l733 -1749h-186z" />
<glyph unicode="]" horiz-adv-x="667" d="M-86 -360l18 135h289l250 1779h-289l19 136h475l-289 -2050h-473z" />
<glyph unicode="^" horiz-adv-x="1169" d="M63 416l578 1018h172l266 -1018h-155l-217 870l-486 -870h-158z" />
<glyph unicode="_" horiz-adv-x="1075" d="M-35 -299l19 137h915l-18 -137h-916z" />
<glyph unicode="`" horiz-adv-x="630" d="M178 1509l127 109l340 -352l-92 -76z" />
<glyph unicode="a" d="M45 426q0 282 166 452.5t440 170.5q211 0 406 -64l-103 -709q-8 -58 -8 -83q0 -82 86 -82h58l-17 -103q-71 -33 -139 -33q-125 0 -164 99q-138 -99 -299 -99q-194 0 -310 122.5t-116 328.5zM238 436q0 -150 78 -237.5t210 -87.5q121 0 234 79l94 687q-95 36 -205 36 q-179 0 -295 -133.5t-116 -343.5z" />
<glyph unicode="b" horiz-adv-x="1124" d="M72 -2l196 1411l-149 12l16 115h338l-76 -545q116 58 256 58q197 0 311.5 -116t114.5 -317q0 -293 -152 -467t-407 -174q-175 0 -295 95l-51 -72h-102zM285 195q90 -84 223 -84q175 0 278 134.5t103 364.5q0 144 -75.5 221.5t-209.5 77.5q-111 0 -227 -63z" />
<glyph unicode="c" horiz-adv-x="993" d="M45 416q0 278 170.5 455.5t437.5 177.5q168 0 346 -45l-61 -355h-125l25 246q-73 18 -181 18q-178 0 -298.5 -135.5t-120.5 -341.5q0 -148 91 -234.5t244 -86.5q132 0 293 45l21 -121q-189 -64 -375 -64q-212 0 -339.5 121t-127.5 320z" />
<glyph unicode="d" d="M45 414q0 280 163.5 457.5t422.5 177.5q128 0 239 -52l60 412l-185 12l15 115h375l-179 -1241q-10 -72 -10 -102q0 -39 23 -60.5t65 -21.5h60l-15 -103q-75 -33 -139 -33q-61 0 -104 26t-64 73q-136 -99 -299 -99q-196 0 -312 119t-116 320zM238 422q0 -144 77 -227.5 t209 -83.5q128 0 234 82q10 93 30 231l64 440q-96 49 -211 49q-174 0 -288.5 -139t-114.5 -352z" />
<glyph unicode="e" horiz-adv-x="1026" d="M43 399q0 185 74 333t208.5 232.5t305.5 84.5q165 0 260.5 -83t95.5 -218q0 -155 -116.5 -251t-305.5 -96q-170 0 -334 74q-2 -16 -2 -51q0 -148 91 -236t243 -88q162 0 322 68l16 -117q-201 -82 -391 -82q-211 0 -339 117.5t-128 312.5zM248 590q136 -68 289 -68 q119 0 198.5 60t79.5 151q0 86 -54.5 135.5t-154.5 49.5q-126 0 -222.5 -89.5t-135.5 -238.5z" />
<glyph unicode="f" horiz-adv-x="757" d="M-276 -477l20 125q98 -23 154 -23q192 0 219 205l147 1069l-155 14l14 111h160l24 172q25 173 117.5 256.5t255.5 83.5q127 0 223 -35l-37 -127q-91 25 -149 25q-96 0 -150 -54t-71 -169l-21 -152h242l-19 -125h-241l-150 -1069q-26 -179 -114.5 -260.5t-255.5 -81.5 q-103 0 -213 35z" />
<glyph unicode="g" horiz-adv-x="1163" d="M-33 -240q0 109 62 188.5t153 112.5q-35 47 -35 113q0 61 31 114t86 89q-141 83 -141 252q0 83 32 157.5t93 133.5t158.5 94t218.5 35q139 0 233 -48l359 17l-19 -131l-211 -15q25 -55 25 -122q0 -90 -31.5 -166.5t-92.5 -135.5t-159 -92.5t-223 -33.5q-80 0 -137 14 q-64 -48 -64 -113q0 -45 34.5 -70.5t96.5 -25.5h230q148 0 231.5 -67.5t83.5 -186.5q0 -185 -157.5 -297.5t-417.5 -112.5q-203 0 -321 80t-118 217zM129 -211q0 -91 80.5 -146t212.5 -55q172 0 274.5 63.5t102.5 168.5q0 67 -47.5 103t-141.5 36h-190q-99 0 -174 43 q-52 -36 -84.5 -91.5t-32.5 -121.5zM311 637q0 -92 58 -145.5t155 -53.5q130 0 211.5 85t81.5 222q0 89 -55.5 138t-155.5 49q-130 0 -212.5 -83.5t-82.5 -211.5z" />
<glyph unicode="h" horiz-adv-x="1241" d="M-12 -2l18 125h141l179 1282l-150 14l17 117h342l-82 -580q149 93 325 93q147 0 226 -74.5t79 -202.5q0 -44 -12 -127l-74 -520h150l-17 -125h-335l88 612q10 88 10 121q0 81 -50 126.5t-147 45.5q-129 0 -260 -74l-100 -706h141l-18 -127h-471z" />
<glyph unicode="i" horiz-adv-x="600" d="M-18 0l18 125h156l112 774l-164 14l17 111h350l-127 -899h162l-19 -125h-505zM291 1352q0 62 41.5 102.5t105.5 40.5q52 0 84.5 -29.5t32.5 -76.5q0 -66 -41 -106t-108 -40q-52 0 -83.5 29.5t-31.5 79.5z" />
<glyph unicode="j" horiz-adv-x="509" d="M-283 -512l21 125h106q118 3 172 54.5t72 168.5l148 1063l-177 14l17 111h364l-168 -1188q-27 -190 -124 -269t-273 -79h-158zM252 1362q6 60 46.5 97.5t100.5 37.5q57 0 89 -33q27 -28 27 -72q0 -7 -1 -14q-6 -61 -46.5 -98t-102.5 -37q-57 0 -87 33q-27 27 -27 71 q0 7 1 15z" />
<glyph unicode="k" horiz-adv-x="1230" d="M-25 0l19 125h166l182 1286l-166 14l17 111h354l-131 -938h159q90 57 170.5 137.5t131.5 161.5l-158 18l12 109h506l-16 -119h-154q-43 -81 -135 -175t-201 -171l146 -299q43 -90 73.5 -117.5t89.5 -27.5h95l-17 -115q-105 -25 -157 -25q-88 0 -139 41t-107 162l-137 287 h-181l-49 -340h164l-18 -125h-519z" />
<glyph unicode="l" horiz-adv-x="604" d="M-18 0l18 125h160l184 1286l-164 12l17 113h352l-201 -1411h160l-16 -125h-510z" />
<glyph unicode="m" horiz-adv-x="1865" d="M-23 0l17 125h151l74 500q23 179 23 204q0 82 -90 82h-43l14 99q70 39 143 39q59 0 102 -25t62 -68q149 93 330 93q194 0 268 -119q162 119 373 119q147 0 227 -74.5t80 -202.5q0 -46 -12 -123l-74 -524h150l-17 -125h-336l86 614q11 70 11 119q0 81 -49.5 126.5 t-145.5 45.5q-128 0 -256 -71q6 -37 6 -80q0 -39 -8 -109l-76 -520h150l-19 -125h-340l90 625q11 59 11 110q0 174 -189 174q-123 0 -250 -67q-2 -18 -26 -193l-76 -524h147l-16 -125h-492z" />
<glyph unicode="n" horiz-adv-x="1232" d="M-23 0l19 125h151l76 532q3 24 9.5 66.5t9 67t2.5 43.5q0 77 -86 77h-49l14 99q70 39 143 39q62 0 105 -26.5t61 -72.5q154 99 334 99q147 0 228 -74.5t81 -202.5q0 -33 -12 -127l-72 -520h148l-17 -125h-336l88 614q11 90 11 121q0 79 -51 124.5t-148 45.5 q-126 0 -246 -65q-4 -42 -22 -160l-80 -555h162l-19 -125h-504z" />
<glyph unicode="o" horiz-adv-x="1091" d="M43 395q0 294 162.5 475t425.5 181q198 0 307 -110.5t109 -311.5q0 -295 -159 -474.5t-423 -179.5q-198 0 -310 111t-112 309zM233 401q0 -138 66 -214t186 -76q168 0 270.5 143.5t102.5 372.5q0 139 -64 212.5t-182 73.5q-167 0 -273 -144t-106 -368z" />
<glyph unicode="p" horiz-adv-x="1193" d="M-96 -512l16 127h158l160 1116q10 68 10 105q0 77 -90 77h-58l17 103q71 33 133 33q134 0 174 -99q133 99 297 99q193 0 310.5 -119t117.5 -316q0 -289 -160.5 -464t-425.5 -175q-138 0 -239 48l-58 -408l183 -12l-15 -115h-530zM342 156q86 -45 211 -45q183 0 293 135 t110 358q0 140 -78 224.5t-208 84.5q-121 0 -236 -82q-5 -74 -28 -231z" />
<glyph unicode="q" horiz-adv-x="1155" d="M43 406q0 291 153 467t406 176q178 0 297 -95l49 72h103l-199 -1411l152 -12l-17 -115h-502l19 127h164l59 424q-127 -62 -268 -62q-196 0 -306 114t-110 315zM233 414q0 -142 72.5 -220.5t204.5 -78.5q121 0 238 69l90 647q-90 84 -222 84q-170 0 -276.5 -139 t-106.5 -362z" />
<glyph unicode="r" horiz-adv-x="784" d="M-25 0l17 125h155l97 682q1 12 1 22q-1 37 -17 60q-22 29 -70 29h-54l13 92q64 39 145 39q130 0 166 -95q144 93 311 93q55 0 101 -17l-41 -137q-41 10 -94 10q-148 0 -273 -69l-100 -709h186l-16 -125h-527z" />
<glyph unicode="s" horiz-adv-x="911" d="M29 47l45 285h127l-11 -209q86 -25 179 -25q114 0 179 47q64 46 64 127q0 45 -27 76.5t-69 51.5t-93 37.5t-102 39.5t-93 51t-68.5 78.5t-26.5 114.5q0 147 109 237.5t297 90.5q161 0 331 -56l-51 -303h-127l6 217q-89 25 -170 25q-96 0 -154.5 -50.5t-58.5 -129.5 q0 -42 21 -74t55 -50.5t77.5 -36t88.5 -30.5t88.5 -34.5t77.5 -48t55 -71.5t21 -104q0 -150 -116 -239t-312 -89q-191 0 -342 72z" />
<glyph unicode="t" horiz-adv-x="741" d="M76 913l14 111h174l86 307h144l-45 -307h311l-17 -125h-313l-76 -528q-12 -79 -12 -119q0 -69 39 -105t111 -36q88 0 172 34l-5 -116q-120 -54 -249 -54q-122 0 -189 62.5t-67 173.5q0 49 12 141l80 547z" />
<glyph unicode="u" horiz-adv-x="1191" d="M90 909l16 115h226v-2l117 2l-91 -633q-10 -65 -10 -104q0 -80 48.5 -123t140.5 -43q111 0 239 76l101 700l-164 12l16 115h236v-6l116 6l-108 -778q-4 -32 -4 -49q0 -80 80 -80h53l-15 -94q-58 -41 -145 -41q-133 0 -162 100q-153 -107 -323 -107q-144 0 -222.5 71.5 t-78.5 199.5q0 45 10 127l76 522z" />
<glyph unicode="v" horiz-adv-x="1236" d="M98 913l17 111h282q19 0 27.5 -7.5t11.5 -27.5l142 -829l340 741h-123l16 123h453l-15 -111l-166 -12l-426 -901h-225l-168 903z" />
<glyph unicode="w" horiz-adv-x="1830" d="M96 913l17 111h268q17 0 24 -7.5t9 -25.5l137 -837l350 870h143q17 0 24.5 -6t8.5 -23l123 -843l311 749h-127l19 123h452l-14 -111l-164 -12l-385 -901h-239l-109 795l-319 -795h-226l-151 903z" />
<glyph unicode="x" horiz-adv-x="1226" d="M-31 0l19 125h137l356 405l-225 369h-160l17 125h237q27 0 40.5 -6.5t25.5 -24.5l243 -395l267 301h-129l18 125h442l-18 -125h-141l-361 -412l236 -362h155l-16 -125h-233q-28 0 -44.5 8t-31.5 29l-240 381l-256 -293h154l-17 -125h-475z" />
<glyph unicode="y" horiz-adv-x="1208" d="M-84 -483l21 127h229q78 0 129 31t92 106q31 57 109 213h-70l-174 909l-166 10l14 111h281q17 0 25.5 -7t11.5 -26l153 -833l328 743h-129l21 123h452l-14 -111l-164 -12l-406 -901q-100 -212 -141 -289q-65 -123 -146.5 -173t-213.5 -50q-108 0 -242 29z" />
<glyph unicode="z" horiz-adv-x="1009" d="M-12 0l18 129l746 770h-476l-57 -240h-125l51 365h869l-17 -125l-753 -774h499l52 229h131l-49 -354h-889z" />
<glyph unicode="{" horiz-adv-x="704" d="M63 618l17 115q105 9 152.5 56.5t62.5 148.5l72 504q17 124 82.5 182.5t187.5 58.5q114 0 192 -32l-26 -105h-101q-75 0 -109.5 -35t-49.5 -125l-78 -479q-19 -110 -77 -164t-167 -63q93 -12 134.5 -58.5t41.5 -138.5q0 -25 -4 -75l-53 -445q-4 -40 -4 -61q0 -63 28 -92 t91 -29h104l-8 -109q-112 -28 -201 -28q-101 0 -156 50t-55 142q0 32 6 72l72 481q6 40 6 70q0 74 -37 111.5t-123 47.5z" />
<glyph unicode="|" horiz-adv-x="489" d="M35 -305l266 1882h188l-266 -1882h-188z" />
<glyph unicode="}" horiz-adv-x="704" d="M-82 -324l27 105h100q75 0 111 35.5t49 124.5l78 479q19 112 76.5 165t166.5 62q-93 12 -134.5 59t-41.5 140q0 26 4 76l54 442q4 40 4 61q0 63 -28 92t-91 29h-105l9 109q101 28 200 28q102 0 157.5 -50t55.5 -142q0 -20 -8 -70l-72 -483q-6 -37 -6 -70q0 -73 37 -110 t123 -47l-16 -117q-104 -7 -151.5 -55t-63.5 -150l-72 -504q-17 -124 -82.5 -182.5t-187.5 -58.5q-115 0 -193 32z" />
<glyph unicode="~" horiz-adv-x="1255" d="M82 412l12 84q35 245 277 245q53 0 109.5 -18.5t104.5 -45.5t95 -54t97.5 -45.5t96.5 -18.5q72 0 116.5 41t62.5 133l135 -20l-10 -76q-15 -117 -87 -184.5t-194 -67.5q-59 0 -117.5 18.5t-106 45t-92.5 53t-94 45t-94 18.5q-142 0 -174 -170z" />
<glyph unicode="&#xa1;" horiz-adv-x="399" d="M-25 -410l45 308l123 686h133l-69 -686l-45 -308h-187zM133 905q0 61 40.5 102.5t100.5 41.5q49 0 79 -30t30 -75q0 -62 -40.5 -102.5t-100.5 -40.5q-49 0 -79 29t-30 75z" />
<glyph unicode="&#xa2;" horiz-adv-x="985" d="M100 606q0 238 136 398.5t350 185.5l22 229h160l-41 -227q151 -12 277 -78l-64 -285h-123l27 207q-85 37 -189 37q-157 0 -260.5 -128t-103.5 -329q0 -134 77 -206t210 -72q143 0 296 59l15 -108q-152 -65 -299 -76l-21 -211h-157l37 211q-164 17 -256.5 120.5 t-92.5 272.5z" />
<glyph unicode="&#xa3;" horiz-adv-x="1220" d="M27 0l18 135q112 0 196.5 32t133 87.5t71.5 122t23 143.5q0 58 -12 111h-297l14 114h248q-18 53 -27.5 84.5t-18.5 85.5t-9 107q0 204 138 326t380 122q99 0 200.5 -16t159.5 -37l-69 -401h-125l14 307q-86 14 -174 14q-152 0 -242 -87.5t-90 -235.5q0 -49 8.5 -101.5 t17 -83t25.5 -84.5h369l-16 -114h-324q8 -58 8 -92q0 -308 -246 -404h664l-18 -135h-1020z" />
<glyph unicode="&#xa4;" horiz-adv-x="1286" d="M29 195l227 194q-76 105 -76 256q0 215 133 367l-161 176l106 94l148 -184q148 104 339 104q188 0 302 -100l196 180l80 -94l-207 -174q53 -92 53 -217t-44.5 -233.5t-123.5 -184.5l168 -184l-104 -95l-162 203q-130 -76 -297 -76q-161 0 -272 82l-221 -209zM342 659 q0 -131 77 -210.5t210 -79.5q164 0 271.5 117t107.5 292q0 127 -79 204t-208 77q-162 0 -270.5 -114.5t-108.5 -285.5z" />
<glyph unicode="&#xa5;" horiz-adv-x="1445" d="M150 1309l16 125h608l-18 -125h-197l219 -586l398 586h-172l18 125h516l-18 -125h-187l-413 -604h342l-15 -97h-395l-29 -43l-14 -102h418l-15 -98h-417l-33 -240h213l-19 -125h-624l18 125h217l35 240h-409l14 98h407l15 102l-17 43h-385l13 97h335l-233 604h-192z" />
<glyph unicode="&#xa6;" horiz-adv-x="483" d="M35 -305l104 737h185l-105 -737h-184zM176 696l105 738h184l-105 -738h-184z" />
<glyph unicode="&#xa7;" horiz-adv-x="1101" d="M41 -244l47 111q57 -26 149 -45t177 -19q145 0 225 64.5t80 171.5q0 52 -34 94t-88 70.5t-119 55.5t-130.5 57.5t-119.5 67t-88 94t-34 130.5q0 120 74 214t207 141q-102 88 -102 217q0 68 28.5 130.5t82.5 113.5t142 81.5t197 30.5q203 0 359 -74l-45 -114 q-148 61 -318 61q-111 0 -179.5 -58t-68.5 -153q0 -52 29.5 -92.5t76.5 -66.5t103.5 -49.5t113.5 -50.5t104 -60.5t76.5 -87.5t29.5 -125q0 -125 -69 -206.5t-206 -129.5q174 -98 174 -258q0 -185 -137.5 -292.5t-367.5 -107.5q-101 0 -201.5 23.5t-167.5 60.5zM297 647 q0 -22 6 -42t13.5 -36t25.5 -33t29 -27.5t38.5 -26t40.5 -23t48 -22t47 -19.5t51 -21q107 37 169 93t62 145q0 33 -14 61.5t-33 48t-55.5 41t-63 33.5t-75.5 33t-74 33q-97 -31 -156 -93t-59 -145z" />
<glyph unicode="&#xa8;" horiz-adv-x="847" d="M184 1327q0 61 40.5 101t99.5 40q47 0 76.5 -28.5t29.5 -73.5q0 -61 -40 -101t-99 -40q-47 0 -77 29t-30 73zM637 1327q0 61 40 101t99 40q47 0 77 -29t30 -73q0 -61 -40.5 -101t-99.5 -40q-47 0 -76.5 28.5t-29.5 73.5z" />
<glyph unicode="&#xa9;" horiz-adv-x="1511" d="M94 569q0 168 58.5 313t160.5 247.5t247.5 160.5t313.5 58q170 0 304 -73.5t209 -204.5t75 -296q0 -224 -99 -400.5t-276 -275t-401 -98.5q-170 0 -305 73t-211 203t-76 293zM209 580q0 -211 138 -347.5t353 -136.5q186 0 334.5 86t232 239t83.5 343q0 214 -138 351.5 t-352 137.5q-140 0 -261 -50.5t-206.5 -139t-134.5 -213.5t-49 -270zM420 621q0 172 119 286.5t297 114.5q146 0 241 -57l-47 -213h-96l18 145q-66 27 -131 27q-110 0 -182 -81t-72 -204q0 -96 57 -153.5t156 -57.5q105 0 213 43l8 -90q-130 -62 -268 -62q-143 0 -228 84 t-85 218z" />
<glyph unicode="&#xaa;" horiz-adv-x="763" d="M133 1081q0 172 103.5 278.5t267.5 106.5q127 0 256 -39l-62 -401q-6 -35 -6 -61q0 -56 58 -56h38l-12 -80q-50 -12 -86 -12q-79 0 -110 51q-82 -51 -193 -51q-115 0 -184.5 70.5t-69.5 193.5zM260 1087q0 -84 45 -130t113 -46q81 0 149 39l56 404q-59 18 -121 18 q-104 0 -173 -79t-69 -206z" />
<glyph unicode="&#xab;" horiz-adv-x="1128" d="M70 514l415 471l107 -82l-318 -395l205 -397l-127 -72zM567 514l416 471l107 -82l-318 -395l205 -397l-127 -72z" />
<glyph unicode="&#xac;" horiz-adv-x="1402" d="M61 584l23 151h1210l-80 -571h-147l57 420h-1063z" />
<glyph unicode="&#xad;" horiz-adv-x="917" d="M68 446l20 136h764l-21 -136h-763z" />
<glyph unicode="&#xae;" horiz-adv-x="899" d="M139 1010q0 196 124.5 322t322.5 126q156 0 245 -86.5t89 -232.5q0 -85 -30 -165t-84.5 -144t-140.5 -103t-188 -39q-157 0 -247.5 88t-90.5 234zM219 1010q0 -118 70.5 -186t195.5 -68q109 0 191.5 56t123 142t40.5 185q0 118 -70 185t-195 67q-159 0 -257.5 -107.5 t-98.5 -273.5zM354 862l62 441h164q64 0 98.5 -33.5t34.5 -85.5q0 -45 -23 -81t-67 -54l47 -187h-84l-37 170h-6h-86l-25 -170h-78zM465 1090h80q39 0 63.5 24.5t24.5 63.5q0 31 -17.5 48t-48.5 17h-80z" />
<glyph unicode="&#xb0;" horiz-adv-x="806" d="M178 1110q0 154 100.5 251t258.5 97q126 0 199 -68t73 -188q0 -157 -100 -254.5t-256 -97.5q-126 0 -200.5 70.5t-74.5 189.5zM324 1116q0 -70 39 -111.5t104 -41.5q86 0 141.5 65t55.5 168q0 69 -38 108t-106 39q-85 0 -140.5 -64t-55.5 -163z" />
<glyph unicode="&#xb1;" horiz-adv-x="1228" d="M-20 0l18 135h1126l-18 -135h-1126zM82 729l18 135h471l56 385h186l-55 -385h469l-19 -135h-469l-55 -389h-186l55 389h-471z" />
<glyph unicode="&#xb2;" horiz-adv-x="749" d="M121 1014l14 98q253 158 346 230q197 152 213 279q2 13 2 26q0 66 -51 104.5t-137 38.5q-63 0 -156 -14l-43 -195h-102l33 268q163 39 309 39q137 0 217 -61t80 -166q0 -45 -13.5 -88t-36 -81t-62 -78.5t-79.5 -75t-101 -76.5t-115 -76.5t-132 -81.5h363l37 158h94 l-31 -248h-649z" />
<glyph unicode="&#xb3;" horiz-adv-x="749" d="M137 1038l37 224h100l-10 -150q68 -16 158 -16q106 0 170.5 52.5t64.5 139.5q0 62 -47 95.5t-133 33.5h-65l12 90h68h8q92 0 142 42t50 120q0 54 -48 86.5t-128 32.5t-147 -12l-37 -181h-107l29 250q134 43 291 43q134 0 209 -56t75 -153q0 -145 -139 -204 q117 -51 117 -181q0 -132 -105.5 -213.5t-267.5 -81.5q-163 0 -297 39z" />
<glyph unicode="&#xb4;" horiz-adv-x="647" d="M188 1266l412 352l100 -109l-438 -319z" />
<glyph unicode="&#xb6;" horiz-adv-x="1271" d="M141 920q0 232 141.5 373t374.5 141h680l-20 -144h-154l-225 -1597h-141l227 1597h-248l-225 -1597h-139l120 864q-177 0 -284 100t-107 263z" />
<glyph unicode="&#xb7;" horiz-adv-x="407" d="M82 518q0 61 41.5 102.5t101.5 41.5q49 0 78 -29.5t29 -75.5q0 -61 -41 -102t-101 -41q-49 0 -78.5 29t-29.5 75z" />
<glyph unicode="&#xb8;" horiz-adv-x="708" d="M-53 -436l43 82q73 -56 182 -56q80 0 125 34t45 97q0 49 -41.5 81t-118.5 38l47 168h117l-29 -108q93 -7 146 -56t53 -123q0 -111 -83.5 -172t-237.5 -61q-74 0 -140.5 22.5t-107.5 53.5z" />
<glyph unicode="&#xb9;" horiz-adv-x="618" d="M115 1014l14 92h207l94 668h-215l10 79l256 21h105l-111 -768h189l-13 -92h-536z" />
<glyph unicode="&#xba;" horiz-adv-x="694" d="M129 1077q0 168 99 274.5t259 106.5q120 0 188 -68t68 -188q0 -175 -96 -282t-258 -107q-122 0 -191 71.5t-69 192.5zM256 1075q0 -80 39 -127t106 -47q98 0 154.5 85t56.5 220q0 78 -36 121t-101 43q-97 0 -158 -83t-61 -212z" />
<glyph unicode="&#xbb;" horiz-adv-x="1128" d="M41 121l315 397l-204 395l127 72l282 -475l-416 -471zM539 121l315 397l-205 395l127 72l283 -475l-416 -471z" />
<glyph unicode="&#xbc;" horiz-adv-x="1904" d="M53 573l15 93h206l95 667h-215l10 80l256 21h104l-110 -768h188l-12 -93h-537zM348 -113l1131 1598h139l-1131 -1598h-139zM1114 266l12 92l506 502h137l-71 -500h145l-12 -94h-145l-25 -174h145l-14 -92h-467l12 92h183l26 174h-432zM1257 360h302l49 345z" />
<glyph unicode="&#xbd;" horiz-adv-x="2019" d="M53 573l15 93h206l95 667h-215l10 80l256 21h104l-110 -768h188l-12 -93h-537zM348 -113l1131 1598h139l-1131 -1598h-139zM1249 0l15 98q253 158 346 230q197 152 213 279q2 13 2 26q0 66 -50.5 104.5t-138.5 38.5q-62 0 -155 -14l-43 -195h-103l33 269q159 38 309 38 q137 0 217 -61t80 -166q0 -52 -16.5 -101t-52.5 -95.5t-78 -88t-109.5 -89.5t-129 -88t-152.5 -95h362l37 158h96l-33 -248h-649z" />
<glyph unicode="&#xbe;" horiz-adv-x="1970" d="M76 598l37 223h100l-10 -149q72 -17 157 -17q106 0 171 53t65 140q0 62 -47 95.5t-133 33.5h-66l12 90h68h8q92 0 142.5 42t50.5 120q0 54 -48 86.5t-128 32.5q-75 0 -148 -13l-37 -180h-106l29 250q134 43 290 43q134 0 209.5 -56t75.5 -153q0 -146 -139 -205 q116 -51 116 -180q0 -132 -105 -213.5t-267 -81.5q-163 0 -297 39zM414 -113l1130 1598h139l-1130 -1598h-139zM1180 266l12 92l508 502h135l-70 -500h146l-15 -94h-145l-25 -174h146l-14 -92h-467l14 92h182l25 174h-432zM1323 360h301l49 345z" />
<glyph unicode="&#xbf;" horiz-adv-x="1007" d="M-12 -117q0 83 30 151.5t78.5 115.5t107 87.5t116.5 75.5t106.5 71t78.5 83t30 102q0 19 -9 64l154 26q25 -64 25 -114q0 -58 -22.5 -108t-59 -86t-83.5 -71t-95.5 -63t-95.5 -61.5t-83.5 -67t-59 -79t-22.5 -97.5q0 -92 63 -142.5t177 -50.5q103 0 248 31l49 268h129 l-33 -378q-235 -66 -446 -66q-181 0 -282 81.5t-101 227.5zM498 907q0 61 40.5 102.5t100.5 41.5q49 0 79 -30t30 -75q0 -62 -40.5 -102.5t-101.5 -40.5q-49 0 -78.5 29t-29.5 75z" />
<glyph unicode="&#xc0;" horiz-adv-x="1521" d="M-47 0l18 131h183l563 1172h-185l19 131h475l234 -1303h184l-19 -131h-548l18 131h168l-59 340h-515l-159 -340h170l-19 -131h-528zM555 606h426l-113 664zM592 1907l127 108l340 -352l-92 -76z" />
<glyph unicode="&#xc1;" horiz-adv-x="1521" d="M-47 0l18 131h183l563 1172h-185l19 131h475l234 -1303h184l-19 -131h-548l18 131h168l-59 340h-515l-159 -340h170l-19 -131h-528zM555 606h426l-113 664zM825 1663l410 352l102 -108l-438 -320z" />
<glyph unicode="&#xc2;" horiz-adv-x="1521" d="M-47 0l18 131h183l563 1172h-185l19 131h475l234 -1303h184l-19 -131h-548l18 131h168l-59 340h-515l-159 -340h170l-19 -131h-528zM555 606h426l-113 664zM600 1597l268 293h162l187 -293h-162l-117 191h-6l-170 -191h-162z" />
<glyph unicode="&#xc3;" horiz-adv-x="1521" d="M-47 0l18 131h183l563 1172h-185l19 131h475l234 -1303h184l-19 -131h-548l18 131h168l-59 340h-515l-159 -340h170l-19 -131h-528zM524 1651l8 63q12 80 61 122t130 42q58 0 160.5 -48t152.5 -48q53 0 82 23.5t39 78.5l103 -14l-11 -62q-9 -79 -62 -122.5t-138 -43.5 q-58 0 -117 24t-110 47.5t-87 23.5q-47 0 -72 -23t-36 -76zM555 606h426l-113 664z" />
<glyph unicode="&#xc4;" horiz-adv-x="1521" d="M-47 0l18 131h183l563 1172h-185l19 131h475l234 -1303h184l-19 -131h-548l18 131h168l-59 340h-515l-159 -340h170l-19 -131h-528zM555 606h426l-113 664zM571 1724q0 60 40.5 101t99.5 41q47 0 76.5 -30t29.5 -75q0 -60 -40 -100.5t-99 -40.5q-49 0 -78 29.5t-29 74.5z M1024 1724q0 60 40 101t99 41q47 0 77 -30t30 -75q0 -60 -40.5 -100.5t-99.5 -40.5q-48 0 -77 29.5t-29 74.5z" />
<glyph unicode="&#xc5;" horiz-adv-x="1521" d="M-47 0l18 131h183l563 1172h-185l19 131h475l234 -1303h184l-19 -131h-548l18 131h168l-59 340h-515l-159 -340h170l-19 -131h-528zM555 606h426l-113 664zM700 1724q0 105 74.5 170.5t192.5 65.5q99 0 151.5 -44.5t52.5 -123.5q0 -106 -73 -171t-189 -65 q-100 0 -154.5 44.5t-54.5 123.5zM819 1731q0 -47 27 -73t74 -26q58 0 95.5 42.5t37.5 111.5q0 46 -26 73t-71 27q-59 0 -98 -44t-39 -111z" />
<glyph unicode="&#xc6;" horiz-adv-x="2068" d="M-43 0l18 131h189l700 1172h-184l18 131h1409l-61 -441h-150l25 310h-553l-72 -523h441l-19 -135h-442l-72 -514h561l62 291h147l-59 -422h-1088l19 131h166l47 340h-516l-203 -340h156l-19 -131h-520zM625 606h452l99 697h-136z" />
<glyph unicode="&#xc7;" horiz-adv-x="1316" d="M86 588q0 188 64 350t176 276t269 179t337 65q236 0 444 -61l-69 -447h-152l19 328q-142 33 -256 33q-178 0 -321.5 -90.5t-225.5 -253t-82 -367.5q0 -223 130 -350t345 -127q112 0 202.5 17t221.5 57l26 -129q-133 -47 -246.5 -69.5t-246.5 -23.5l-21 -73 q94 -9 146.5 -57t52.5 -124q0 -111 -82.5 -172t-236.5 -61q-76 0 -141 22t-107 54l43 82q78 -56 182 -56q79 0 124.5 34.5t45.5 96.5q0 50 -41 81.5t-119 37.5l39 142q-239 30 -379.5 189.5t-140.5 416.5z" />
<glyph unicode="&#xc8;" horiz-adv-x="1204" d="M-23 0l19 131h168l164 1172h-168l18 131h1082l-64 -441h-147l22 310h-551l-74 -523h443l-21 -135h-440l-72 -514h559l62 291h149l-59 -422h-1090zM481 1919l129 109l340 -353l-92 -76z" />
<glyph unicode="&#xc9;" horiz-adv-x="1204" d="M-23 0l19 131h168l164 1172h-168l18 131h1082l-64 -441h-147l22 310h-551l-74 -523h443l-21 -135h-440l-72 -514h559l62 291h149l-59 -422h-1090zM715 1675l411 353l101 -109l-439 -320z" />
<glyph unicode="&#xca;" horiz-adv-x="1204" d="M-23 0l19 131h168l164 1172h-168l18 131h1082l-64 -441h-147l22 310h-551l-74 -523h443l-21 -135h-440l-72 -514h559l62 291h149l-59 -422h-1090zM492 1610l266 293h164l184 -293h-160l-117 190l-8 2l-168 -192h-161z" />
<glyph unicode="&#xcb;" horiz-adv-x="1204" d="M-23 0l19 131h168l164 1172h-168l18 131h1082l-64 -441h-147l22 310h-551l-74 -523h443l-21 -135h-440l-72 -514h559l62 291h149l-59 -422h-1090zM463 1737q0 61 39 101t98 40q49 0 78 -28.5t29 -73.5q0 -61 -39.5 -101.5t-98.5 -40.5q-49 0 -77.5 29t-28.5 74zM915 1737 q0 61 39.5 101t98.5 40q49 0 77.5 -28.5t28.5 -73.5q0 -61 -39 -101.5t-98 -40.5q-49 0 -78 29t-29 74z" />
<glyph unicode="&#xcc;" horiz-adv-x="651" d="M-23 0l19 131h180l164 1172h-180l18 131h553l-18 -131h-181l-163 -1172h180l-19 -131h-553zM168 1919l127 109l340 -353l-90 -76z" />
<glyph unicode="&#xcd;" horiz-adv-x="651" d="M-23 0l19 131h180l164 1172h-180l18 131h553l-18 -131h-181l-163 -1172h180l-19 -131h-553zM401 1675l410 353l102 -109l-438 -320z" />
<glyph unicode="&#xce;" horiz-adv-x="651" d="M-23 0l19 131h180l164 1172h-180l18 131h553l-18 -131h-181l-163 -1172h180l-19 -131h-553zM176 1610l268 293h162l187 -293h-162l-115 190l-8 2l-170 -192h-162z" />
<glyph unicode="&#xcf;" horiz-adv-x="651" d="M-23 0l19 131h180l164 1172h-180l18 131h553l-18 -131h-181l-163 -1172h180l-19 -131h-553zM147 1737q0 61 40.5 101t99.5 40q49 0 77.5 -28.5t28.5 -73.5q0 -61 -40 -101.5t-99 -40.5q-47 0 -77 29t-30 74zM600 1737q0 61 40 101t99 40q49 0 78 -28.5t29 -73.5 q0 -61 -40 -101.5t-99 -40.5q-47 0 -77 29t-30 74z" />
<glyph unicode="&#xd0;" horiz-adv-x="1435" d="M-23 0l19 131h180l72 508h-172l18 135h172l74 529h-180l18 131h582q297 0 460.5 -152.5t163.5 -429.5q0 -396 -216 -624t-595 -228h-596zM369 131h211q284 0 444 189t160 530q0 218 -120.5 335.5t-344.5 117.5h-187l-73 -529h295l-21 -135h-293z" />
<glyph unicode="&#xd1;" horiz-adv-x="1525" d="M-14 0l18 131h180l164 1172h-180l18 131h373l531 -1127l139 996h-178l18 131h543l-19 -131h-182l-182 -1303h-178l-541 1157l-143 -1026h178l-19 -131h-540zM555 1663l8 63q25 164 193 164q58 0 160 -48t153 -48q52 0 80.5 23.5t38.5 78.5l102 -14l-10 -61 q-9 -79 -62 -122.5t-139 -43.5q-57 0 -116 23.5t-110 47t-87 23.5q-46 0 -72.5 -23t-36.5 -75z" />
<glyph unicode="&#xd2;" horiz-adv-x="1478" d="M86 553q0 199 57.5 367.5t161 286.5t251 184.5t321.5 66.5q274 0 423.5 -150t149.5 -425q0 -271 -98.5 -477t-278.5 -318.5t-416 -112.5q-259 0 -415 158.5t-156 419.5zM287 567q0 -203 106.5 -323.5t286.5 -120.5q254 0 411.5 205.5t157.5 541.5q0 210 -103.5 325.5 t-293.5 115.5q-163 0 -292 -96t-201 -265.5t-72 -382.5zM580 1917l127 108l340 -352l-91 -76z" />
<glyph unicode="&#xd3;" horiz-adv-x="1478" d="M86 553q0 199 57.5 367.5t161 286.5t251 184.5t321.5 66.5q274 0 423.5 -150t149.5 -425q0 -271 -98.5 -477t-278.5 -318.5t-416 -112.5q-259 0 -415 158.5t-156 419.5zM287 567q0 -203 106.5 -323.5t286.5 -120.5q254 0 411.5 205.5t157.5 541.5q0 210 -103.5 325.5 t-293.5 115.5q-163 0 -292 -96t-201 -265.5t-72 -382.5zM813 1673l410 352l102 -108l-438 -320z" />
<glyph unicode="&#xd4;" horiz-adv-x="1478" d="M86 553q0 199 57.5 367.5t161 286.5t251 184.5t321.5 66.5q274 0 423.5 -150t149.5 -425q0 -271 -98.5 -477t-278.5 -318.5t-416 -112.5q-259 0 -415 158.5t-156 419.5zM287 567q0 -203 106.5 -323.5t286.5 -120.5q254 0 411.5 205.5t157.5 541.5q0 210 -103.5 325.5 t-293.5 115.5q-163 0 -292 -96t-201 -265.5t-72 -382.5zM588 1608l268 293h162l186 -293h-162l-114 190h-8l-170 -190h-162z" />
<glyph unicode="&#xd5;" horiz-adv-x="1478" d="M86 553q0 199 57.5 367.5t161 286.5t251 184.5t321.5 66.5q274 0 423.5 -150t149.5 -425q0 -271 -98.5 -477t-278.5 -318.5t-416 -112.5q-259 0 -415 158.5t-156 419.5zM287 567q0 -203 106.5 -323.5t286.5 -120.5q254 0 411.5 205.5t157.5 541.5q0 210 -103.5 325.5 t-293.5 115.5q-163 0 -292 -96t-201 -265.5t-72 -382.5zM512 1661l8 63q25 164 193 164q56 0 159 -48t154 -48q52 0 80.5 23.5t38.5 78.5l102 -14l-10 -61q-9 -79 -62.5 -122.5t-138.5 -43.5q-57 0 -116 23.5t-110 47t-87 23.5q-46 0 -72.5 -23t-36.5 -75z" />
<glyph unicode="&#xd6;" horiz-adv-x="1478" d="M86 553q0 199 57.5 367.5t161 286.5t251 184.5t321.5 66.5q274 0 423.5 -150t149.5 -425q0 -271 -98.5 -477t-278.5 -318.5t-416 -112.5q-259 0 -415 158.5t-156 419.5zM287 567q0 -203 106.5 -323.5t286.5 -120.5q254 0 411.5 205.5t157.5 541.5q0 210 -103.5 325.5 t-293.5 115.5q-163 0 -292 -96t-201 -265.5t-72 -382.5zM559 1735q0 60 40 100.5t99 40.5q49 0 78 -29.5t29 -74.5q0 -60 -40 -101t-99 -41q-47 0 -77 30t-30 75zM1012 1735q0 60 40 100.5t99 40.5q48 0 77 -29.5t29 -74.5q0 -60 -40 -101t-99 -41q-47 0 -76.5 30t-29.5 75z " />
<glyph unicode="&#xd7;" horiz-adv-x="1185" d="M29 121l446 391l-338 395l131 113l338 -393l443 391l102 -117l-446 -391l342 -395l-132 -115l-340 395l-446 -391z" />
<glyph unicode="&#xd8;" horiz-adv-x="1499" d="M84 553q0 199 58 367.5t161.5 286.5t251.5 184.5t322 66.5q157 0 270 -49l110 174h99l-135 -213q229 -144 229 -487q0 -271 -98.5 -477t-278.5 -318.5t-416 -112.5q-159 0 -280 62l-123 -195h-94l147 236q-106 75 -164.5 197t-58.5 278zM287 567q0 -214 116 -336 l654 1033q-86 47 -207 47q-162 0 -290.5 -96t-200.5 -266t-72 -382zM469 180q88 -57 211 -57q254 0 411.5 205.5t157.5 541.5q0 234 -125 347z" />
<glyph unicode="&#xd9;" horiz-adv-x="1542" d="M154 1303l18 131h553l-18 -131h-181l-108 -766q-10 -72 -10 -125q0 -140 80 -216.5t227 -76.5q355 0 407 387l113 797h-178l18 131h551l-18 -131h-178l-113 -791q-73 -537 -617 -537q-236 0 -361.5 109t-125.5 313q0 32 12 146l109 760h-180zM604 1919l129 109l338 -353 l-90 -76z" />
<glyph unicode="&#xda;" horiz-adv-x="1542" d="M154 1303l18 131h553l-18 -131h-181l-108 -766q-10 -72 -10 -125q0 -140 80 -216.5t227 -76.5q355 0 407 387l113 797h-178l18 131h551l-18 -131h-178l-113 -791q-73 -537 -617 -537q-236 0 -361.5 109t-125.5 313q0 32 12 146l109 760h-180zM838 1675l411 353l101 -109 l-439 -320z" />
<glyph unicode="&#xdb;" horiz-adv-x="1542" d="M154 1303l18 131h553l-18 -131h-181l-108 -766q-10 -72 -10 -125q0 -140 80 -216.5t227 -76.5q355 0 407 387l113 797h-178l18 131h551l-18 -131h-178l-113 -791q-73 -537 -617 -537q-236 0 -361.5 109t-125.5 313q0 32 12 146l109 760h-180zM614 1610l267 293h161 l187 -293h-162l-115 190l-8 2l-170 -192h-160z" />
<glyph unicode="&#xdc;" horiz-adv-x="1542" d="M154 1303l18 131h553l-18 -131h-181l-108 -766q-10 -72 -10 -125q0 -140 80 -216.5t227 -76.5q355 0 407 387l113 797h-178l18 131h551l-18 -131h-178l-113 -791q-73 -537 -617 -537q-236 0 -361.5 109t-125.5 313q0 32 12 146l109 760h-180zM584 1737q0 61 40 101t99 40 q49 0 77.5 -28.5t28.5 -73.5q0 -61 -39.5 -101.5t-99.5 -40.5q-47 0 -76.5 29t-29.5 74zM1036 1737q0 61 40.5 101t99.5 40q49 0 77.5 -28.5t28.5 -73.5q0 -61 -39.5 -101.5t-99.5 -40.5q-47 0 -77 29t-30 74z" />
<glyph unicode="&#xdd;" horiz-adv-x="1423" d="M135 1303l19 131h567l-19 -131h-174l232 -576l395 576h-166l19 131h520l-19 -131h-174l-526 -740l-59 -432h211l-19 -131h-618l18 131h213l61 432l-301 740h-180zM778 1663l412 354l100 -108l-438 -322z" />
<glyph unicode="&#xde;" horiz-adv-x="1257" d="M-8 0l18 131h178l164 1172h-178l19 131h372l-26 -191h252q201 0 312 -94t111 -264q0 -226 -144.5 -357t-393.5 -131h-256l-37 -266h207l-19 -131h-579zM438 532h244q156 0 244 95t88 241q0 116 -69 180t-195 64h-230z" />
<glyph unicode="&#xdf;" horiz-adv-x="1386" d="M-268 -477l37 127q91 -25 149 -25q98 0 151 48.5t68 156.5l148 1069l-156 14l16 111h158l19 135q26 187 152.5 294.5t305.5 107.5q171 0 268 -73.5t97 -195.5q0 -57 -15.5 -105.5t-39.5 -82.5t-53.5 -63t-59.5 -52.5t-54 -45t-39.5 -46.5t-15.5 -51q0 -35 23.5 -63 t60.5 -48t82 -40t90 -45.5t82 -57.5t60.5 -82.5t23.5 -114.5q0 -82 -31 -157t-88.5 -133.5t-149 -93t-202.5 -34.5q-178 0 -315 74l39 113q51 -24 124.5 -39.5t141.5 -15.5q128 0 206.5 69t78.5 184q0 47 -23 83.5t-60 60.5t-81.5 45t-89 42.5t-81.5 46t-60 62.5t-23 86 q0 43 15.5 79.5t40 63.5t54 53.5t59 54t54 58.5t40 75t15.5 96q0 75 -48.5 118.5t-139.5 43.5q-99 0 -168 -68t-86 -188l-186 -1344q-25 -179 -114.5 -260.5t-256.5 -81.5q-127 0 -223 35z" />
<glyph unicode="&#xe0;" d="M45 426q0 282 166 452.5t440 170.5q211 0 406 -64l-103 -709q-8 -58 -8 -83q0 -82 86 -82h58l-17 -103q-71 -33 -139 -33q-125 0 -164 99q-138 -99 -299 -99q-194 0 -310 122.5t-116 328.5zM238 436q0 -150 78 -237.5t210 -87.5q121 0 234 79l94 687q-95 36 -205 36 q-179 0 -295 -133.5t-116 -343.5zM385 1509l127 109l340 -352l-92 -76z" />
<glyph unicode="&#xe1;" d="M45 426q0 282 166 452.5t440 170.5q211 0 406 -64l-103 -709q-8 -58 -8 -83q0 -82 86 -82h58l-17 -103q-71 -33 -139 -33q-125 0 -164 99q-138 -99 -299 -99q-194 0 -310 122.5t-116 328.5zM238 436q0 -150 78 -237.5t210 -87.5q121 0 234 79l94 687q-95 36 -205 36 q-179 0 -295 -133.5t-116 -343.5zM616 1266l412 352l100 -109l-438 -319z" />
<glyph unicode="&#xe2;" d="M45 426q0 282 166 452.5t440 170.5q211 0 406 -64l-103 -709q-8 -58 -8 -83q0 -82 86 -82h58l-17 -103q-71 -33 -139 -33q-125 0 -164 99q-138 -99 -299 -99q-194 0 -310 122.5t-116 328.5zM238 436q0 -150 78 -237.5t210 -87.5q121 0 234 79l94 687q-95 36 -205 36 q-179 0 -295 -133.5t-116 -343.5zM393 1200l266 293h164l187 -293h-162l-117 191l-6 2l-170 -193h-162z" />
<glyph unicode="&#xe3;" d="M45 426q0 282 166 452.5t440 170.5q211 0 406 -64l-103 -709q-8 -58 -8 -83q0 -82 86 -82h58l-17 -103q-71 -33 -139 -33q-125 0 -164 99q-138 -99 -299 -99q-194 0 -310 122.5t-116 328.5zM238 436q0 -150 78 -237.5t210 -87.5q121 0 234 79l94 687q-95 36 -205 36 q-179 0 -295 -133.5t-116 -343.5zM315 1253l11 64q25 164 190 164q58 0 160.5 -48.5t152.5 -48.5q53 0 82 24t39 79l103 -14l-11 -62q-10 -79 -62.5 -122.5t-137.5 -43.5q-57 0 -116.5 23.5t-110.5 47t-87 23.5q-47 0 -72.5 -22.5t-37.5 -75.5z" />
<glyph unicode="&#xe4;" d="M45 426q0 282 166 452.5t440 170.5q211 0 406 -64l-103 -709q-8 -58 -8 -83q0 -82 86 -82h58l-17 -103q-71 -33 -139 -33q-125 0 -164 99q-138 -99 -299 -99q-194 0 -310 122.5t-116 328.5zM238 436q0 -150 78 -237.5t210 -87.5q121 0 234 79l94 687q-95 36 -205 36 q-179 0 -295 -133.5t-116 -343.5zM365 1327q0 61 39.5 101t99.5 40q47 0 76.5 -28.5t29.5 -73.5q0 -61 -40 -101t-99 -40q-49 0 -77.5 28.5t-28.5 73.5zM817 1327q0 61 39.5 101t99.5 40q47 0 77 -29t30 -73q0 -61 -40 -101t-99 -40q-49 0 -78 28.5t-29 73.5z" />
<glyph unicode="&#xe5;" d="M45 426q0 282 166 452.5t440 170.5q211 0 406 -64l-103 -709q-8 -58 -8 -83q0 -82 86 -82h58l-17 -103q-71 -33 -139 -33q-125 0 -164 99q-138 -99 -299 -99q-194 0 -310 122.5t-116 328.5zM238 436q0 -150 78 -237.5t210 -87.5q121 0 234 79l94 687q-95 36 -205 36 q-179 0 -295 -133.5t-116 -343.5zM494 1327q0 107 73 171.5t191 64.5q100 0 153.5 -44.5t53.5 -123.5q0 -105 -73.5 -169.5t-189.5 -64.5q-100 0 -154 43.5t-54 122.5zM612 1333q0 -47 26.5 -72.5t74.5 -25.5q58 0 95.5 43t37.5 111q0 46 -25.5 73t-70.5 27 q-59 0 -98.5 -44.5t-39.5 -111.5z" />
<glyph unicode="&#xe6;" horiz-adv-x="1720" d="M53 395q0 290 168 472t432 182q186 0 365 -86q131 81 295 81q171 0 264.5 -77.5t93.5 -216.5q0 -144 -123.5 -240t-298.5 -96q-181 0 -331 69q0 -10 -1.5 -29.5t-1.5 -29.5q0 -145 88.5 -234.5t235.5 -89.5q160 0 311 64l23 -115q-193 -80 -393 -80q-232 0 -357 144 q-77 -70 -159.5 -104t-190.5 -34q-190 0 -305 115.5t-115 304.5zM246 412q0 -138 77 -219.5t207 -81.5q123 0 230 104q-33 87 -33 184q0 134 43 251.5t121 205.5q-114 57 -244 57q-174 0 -287.5 -140t-113.5 -361zM936 588q120 -64 285 -64q113 0 194.5 58.5t81.5 148.5 q0 85 -53.5 133.5t-153.5 48.5q-128 0 -223.5 -88t-130.5 -237z" />
<glyph unicode="&#xe7;" horiz-adv-x="993" d="M45 416q0 278 170.5 455.5t437.5 177.5q168 0 346 -45l-61 -355h-125l25 246q-73 18 -181 18q-179 0 -300 -135.5t-121 -341.5q0 -148 92 -234.5t245 -86.5q132 0 293 45l21 -121q-175 -61 -363 -64l-20 -75q93 -7 145.5 -56t52.5 -123q0 -111 -83.5 -172t-237.5 -61 q-74 0 -140.5 22.5t-105.5 53.5l41 82q78 -56 182 -56q80 0 125 34t45 97q0 51 -40.5 82t-118.5 37l41 144q-169 28 -267 143.5t-98 288.5z" />
<glyph unicode="&#xe8;" horiz-adv-x="1026" d="M43 399q0 185 74 333t208.5 232.5t305.5 84.5q165 0 260.5 -83t95.5 -218q0 -155 -116.5 -251t-305.5 -96q-170 0 -334 74q-2 -16 -2 -51q0 -148 91 -236t243 -88q162 0 322 68l16 -117q-201 -82 -391 -82q-211 0 -339 117.5t-128 312.5zM248 590q136 -68 289 -68 q119 0 198.5 60t79.5 151q0 86 -54.5 135.5t-154.5 49.5q-126 0 -222.5 -89.5t-135.5 -238.5zM326 1509l129 109l338 -352l-91 -76z" />
<glyph unicode="&#xe9;" horiz-adv-x="1026" d="M43 399q0 185 74 333t208.5 232.5t305.5 84.5q165 0 260.5 -83t95.5 -218q0 -155 -116.5 -251t-305.5 -96q-170 0 -334 74q-2 -16 -2 -51q0 -148 91 -236t243 -88q162 0 322 68l16 -117q-201 -82 -391 -82q-211 0 -339 117.5t-128 312.5zM248 590q136 -68 289 -68 q119 0 198.5 60t79.5 151q0 86 -54.5 135.5t-154.5 49.5q-126 0 -222.5 -89.5t-135.5 -238.5zM559 1266l412 352l100 -109l-438 -319z" />
<glyph unicode="&#xea;" horiz-adv-x="1026" d="M43 399q0 185 74 333t208.5 232.5t305.5 84.5q165 0 260.5 -83t95.5 -218q0 -155 -116.5 -251t-305.5 -96q-170 0 -334 74q-2 -16 -2 -51q0 -148 91 -236t243 -88q162 0 322 68l16 -117q-201 -82 -391 -82q-211 0 -339 117.5t-128 312.5zM248 590q136 -68 289 -68 q119 0 198.5 60t79.5 151q0 86 -54.5 135.5t-154.5 49.5q-126 0 -222.5 -89.5t-135.5 -238.5zM336 1200l266 293h162l186 -293h-162l-114 191l-8 2l-170 -193h-160z" />
<glyph unicode="&#xeb;" horiz-adv-x="1026" d="M43 399q0 185 74 333t208.5 232.5t305.5 84.5q165 0 260.5 -83t95.5 -218q0 -155 -116.5 -251t-305.5 -96q-170 0 -334 74q-2 -16 -2 -51q0 -148 91 -236t243 -88q162 0 322 68l16 -117q-201 -82 -391 -82q-211 0 -339 117.5t-128 312.5zM248 590q136 -68 289 -68 q119 0 198.5 60t79.5 151q0 86 -54.5 135.5t-154.5 49.5q-126 0 -222.5 -89.5t-135.5 -238.5zM305 1327q0 61 40 101t99 40q49 0 78 -28.5t29 -73.5q0 -61 -39.5 -101t-99.5 -40q-47 0 -77 29t-30 73zM758 1327q0 61 40 101t99 40q49 0 78 -28.5t29 -73.5q0 -61 -40 -101 t-100 -40q-47 0 -76.5 28.5t-29.5 73.5z" />
<glyph unicode="&#xec;" horiz-adv-x="618" d="M-10 0l18 125h158l110 774l-163 14l16 111h352l-129 -899h162l-18 -125h-506zM78 1509l129 109l340 -352l-92 -76z" />
<glyph unicode="&#xed;" horiz-adv-x="618" d="M-10 0l18 125h158l110 774l-163 14l16 111h352l-129 -899h162l-18 -125h-506zM301 1262l283 356l121 -92l-314 -330z" />
<glyph unicode="&#xee;" horiz-adv-x="618" d="M-10 0l18 125h158l110 774l-163 14l16 111h352l-129 -899h162l-18 -125h-506zM88 1200l266 293h164l184 -293h-159l-117 191l-8 2l-168 -193h-162z" />
<glyph unicode="&#xef;" horiz-adv-x="618" d="M-10 0l18 125h158l110 774l-163 14l16 111h352l-129 -899h162l-18 -125h-506zM59 1327q0 61 39.5 101t98.5 40q49 0 77.5 -28.5t28.5 -73.5q0 -61 -39 -101t-98 -40q-49 0 -78 28.5t-29 73.5zM512 1327q0 61 39 101t98 40q49 0 78 -28.5t29 -73.5q0 -61 -39.5 -101 t-98.5 -40q-49 0 -77.5 28.5t-28.5 73.5z" />
<glyph unicode="&#xf0;" horiz-adv-x="1218" d="M68 375q0 263 155.5 422t413.5 159q216 0 352 -79l2 36q0 230 -104 355l-215 -178l-60 69l207 172q-94 62 -217 62q-102 0 -178 -16t-174 -58l-17 123q196 94 414 94q186 0 316 -88l194 160l57 -68l-182 -151q150 -156 150 -457q0 -287 -88.5 -504.5t-250.5 -335 t-374 -117.5q-187 0 -294 108.5t-107 291.5zM260 397q0 -123 62.5 -195.5t177.5 -72.5q191 0 319 160t160 438q-122 92 -317 92q-184 0 -293 -119t-109 -303z" />
<glyph unicode="&#xf1;" horiz-adv-x="1232" d="M-23 0l19 125h151l76 532q3 24 9.5 66.5t9 67t2.5 43.5q0 77 -86 77h-49l14 99q70 39 143 39q62 0 105 -26.5t61 -72.5q154 99 334 99q147 0 228 -74.5t81 -202.5q0 -33 -12 -127l-72 -520h148l-17 -125h-336l88 614q11 90 11 121q0 79 -51 124.5t-148 45.5 q-126 0 -246 -65q-4 -42 -22 -160l-80 -555h162l-19 -125h-504zM365 1253l10 64q25 164 190 164q58 0 161 -48.5t153 -48.5q53 0 81.5 24t38.5 79l103 -14l-10 -62q-10 -79 -63 -122.5t-138 -43.5q-57 0 -116.5 23.5t-110 47t-86.5 23.5q-47 0 -73 -23t-38 -75z" />
<glyph unicode="&#xf2;" horiz-adv-x="1091" d="M43 395q0 294 162.5 475t425.5 181q198 0 307 -110.5t109 -311.5q0 -295 -159 -474.5t-423 -179.5q-198 0 -310 111t-112 309zM233 401q0 -138 66 -214t186 -76q168 0 270.5 143.5t102.5 372.5q0 139 -64 212.5t-182 73.5q-167 0 -273 -144t-106 -368zM340 1509l127 109 l340 -352l-90 -76z" />
<glyph unicode="&#xf3;" horiz-adv-x="1091" d="M43 395q0 294 162.5 475t425.5 181q198 0 307 -110.5t109 -311.5q0 -295 -159 -474.5t-423 -179.5q-198 0 -310 111t-112 309zM233 401q0 -138 66 -214t186 -76q168 0 270.5 143.5t102.5 372.5q0 139 -64 212.5t-182 73.5q-167 0 -273 -144t-106 -368zM573 1266l410 352 l102 -109l-438 -319z" />
<glyph unicode="&#xf4;" horiz-adv-x="1091" d="M43 395q0 294 162.5 475t425.5 181q198 0 307 -110.5t109 -311.5q0 -295 -159 -474.5t-423 -179.5q-198 0 -310 111t-112 309zM233 401q0 -138 66 -214t186 -76q168 0 270.5 143.5t102.5 372.5q0 139 -64 212.5t-182 73.5q-167 0 -273 -144t-106 -368zM348 1200l268 293 h162l187 -293h-162l-115 191l-8 2l-170 -193h-162z" />
<glyph unicode="&#xf5;" horiz-adv-x="1091" d="M43 395q0 294 162.5 475t425.5 181q198 0 307 -110.5t109 -311.5q0 -295 -159 -474.5t-423 -179.5q-198 0 -310 111t-112 309zM233 401q0 -138 66 -214t186 -76q168 0 270.5 143.5t102.5 372.5q0 139 -64 212.5t-182 73.5q-167 0 -273 -144t-106 -368zM272 1253l9 64 q25 164 192 164q56 0 159 -48.5t154 -48.5q52 0 80.5 24t38.5 79l103 -14l-11 -62q-9 -79 -62 -122.5t-138 -43.5q-57 0 -116.5 23.5t-110.5 47t-87 23.5q-46 0 -72 -23t-36 -75z" />
<glyph unicode="&#xf6;" horiz-adv-x="1091" d="M43 395q0 294 162.5 475t425.5 181q198 0 307 -110.5t109 -311.5q0 -295 -159 -474.5t-423 -179.5q-198 0 -310 111t-112 309zM233 401q0 -138 66 -214t186 -76q168 0 270.5 143.5t102.5 372.5q0 139 -64 212.5t-182 73.5q-167 0 -273 -144t-106 -368zM319 1327 q0 61 40.5 101t99.5 40q49 0 77.5 -28.5t28.5 -73.5q0 -61 -40 -101t-99 -40q-47 0 -77 29t-30 73zM772 1327q0 61 40 101t99 40q49 0 78 -28.5t29 -73.5q0 -61 -40 -101t-99 -40q-47 0 -77 29t-30 73z" />
<glyph unicode="&#xf7;" horiz-adv-x="1325" d="M92 479l21 135h1130l-20 -135h-1131zM492 135q0 61 40.5 102.5t100.5 41.5q49 0 78.5 -29.5t29.5 -75.5q0 -61 -40.5 -102t-100.5 -41q-49 0 -78.5 29t-29.5 75zM610 967q0 61 41 102t101 41q49 0 78.5 -29t29.5 -75q0 -61 -40.5 -102.5t-100.5 -41.5q-49 0 -79 29.5 t-30 75.5z" />
<glyph unicode="&#xf8;" horiz-adv-x="1110" d="M43 395q0 294 162.5 474t425.5 180q119 0 203 -37l110 178h86l-133 -215q150 -107 150 -346q0 -295 -159 -474.5t-423 -179.5q-91 0 -168 25l-121 -195h-86l139 226q-186 106 -186 364zM233 401q0 -155 82 -231l437 707q-56 36 -140 36q-167 0 -273 -144t-106 -368z M377 131q52 -20 108 -20q168 0 270.5 143.5t102.5 372.5q0 127 -53 198z" />
<glyph unicode="&#xf9;" horiz-adv-x="1191" d="M90 909l16 115h226v-2l117 2l-91 -633q-10 -65 -10 -104q0 -80 48.5 -123t140.5 -43q111 0 239 76l101 700l-164 12l16 115h236v-6l116 6l-108 -778q-4 -32 -4 -49q0 -80 80 -80h53l-15 -94q-58 -41 -145 -41q-133 0 -162 100q-153 -107 -323 -107q-144 0 -222.5 71.5 t-78.5 199.5q0 45 10 127l76 522zM356 1509l127 109l340 -352l-92 -76z" />
<glyph unicode="&#xfa;" horiz-adv-x="1191" d="M90 909l16 115h226v-2l117 2l-91 -633q-10 -65 -10 -104q0 -80 48.5 -123t140.5 -43q111 0 239 76l101 700l-164 12l16 115h236v-6l116 6l-108 -778q-4 -32 -4 -49q0 -80 80 -80h53l-15 -94q-58 -41 -145 -41q-133 0 -162 100q-153 -107 -323 -107q-144 0 -222.5 71.5 t-78.5 199.5q0 45 10 127l76 522zM588 1266l411 352l101 -109l-438 -319z" />
<glyph unicode="&#xfb;" horiz-adv-x="1191" d="M90 909l16 115h226v-2l117 2l-91 -633q-10 -65 -10 -104q0 -80 48.5 -123t140.5 -43q111 0 239 76l101 700l-164 12l16 115h236v-6l116 6l-108 -778q-4 -32 -4 -49q0 -80 80 -80h53l-15 -94q-58 -41 -145 -41q-133 0 -162 100q-153 -107 -323 -107q-144 0 -222.5 71.5 t-78.5 199.5q0 45 10 127l76 522zM365 1200l266 293h164l186 -293h-162l-117 191l-6 2l-170 -193h-161z" />
<glyph unicode="&#xfc;" horiz-adv-x="1191" d="M90 909l16 115h226v-2l117 2l-91 -633q-10 -65 -10 -104q0 -80 48.5 -123t140.5 -43q111 0 239 76l101 700l-164 12l16 115h236v-6l116 6l-108 -778q-4 -32 -4 -49q0 -80 80 -80h53l-15 -94q-58 -41 -145 -41q-133 0 -162 100q-153 -107 -323 -107q-144 0 -222.5 71.5 t-78.5 199.5q0 45 10 127l76 522zM336 1327q0 61 39.5 101t99.5 40q47 0 77 -29t30 -73q0 -61 -40.5 -101t-99.5 -40q-49 0 -77.5 28.5t-28.5 73.5zM788 1327q0 61 40 101t100 40q47 0 76.5 -28.5t29.5 -73.5q0 -61 -40 -101t-99 -40q-49 0 -78 28.5t-29 73.5z" />
<glyph unicode="&#xfd;" horiz-adv-x="1208" d="M-84 -483l21 127h229q78 0 129 31t92 106q31 57 109 213h-70l-174 909l-166 10l14 111h281q17 0 25.5 -7t11.5 -26l153 -833l328 743h-129l21 123h452l-14 -111l-164 -12l-406 -901q-100 -212 -141 -289q-65 -123 -146.5 -173t-213.5 -50q-108 0 -242 29zM629 1266 l411 352l101 -109l-439 -319z" />
<glyph unicode="&#xfe;" horiz-adv-x="1198" d="M-84 -512l18 127h146l233 1661q6 38 6 67q0 82 -88 82h-43l15 103q71 33 139 33q83 0 127.5 -41t44.5 -119q0 -29 -6 -70l-49 -360q131 78 280 78q193 0 299.5 -111.5t106.5 -314.5q0 -296 -155 -472t-412 -176q-156 0 -252 60l-60 -420l187 -12l-17 -115h-520zM346 182 q90 -71 229 -71q173 0 276 134t103 361q0 148 -69 227.5t-197 79.5q-132 0 -250 -84z" />
<glyph unicode="&#xff;" horiz-adv-x="1208" d="M-84 -483l21 127h229q78 0 129 31t92 106q31 57 109 213h-70l-174 909l-166 10l14 111h281q17 0 25.5 -7t11.5 -26l153 -833l328 743h-129l21 123h452l-14 -111l-164 -12l-406 -901q-100 -212 -141 -289q-65 -123 -146.5 -173t-213.5 -50q-108 0 -242 29zM377 1327 q0 61 39.5 101t99.5 40q47 0 77 -29t30 -73q0 -61 -40.5 -101t-99.5 -40q-49 0 -77.5 28.5t-28.5 73.5zM829 1327q0 61 40 101t100 40q47 0 76.5 -28.5t29.5 -73.5q0 -61 -40 -101t-99 -40q-49 0 -78 28.5t-29 73.5z" />
<glyph unicode="&#x152;" horiz-adv-x="2056" d="M98 561q0 268 98 471.5t278 314.5t417 111q65 0 186 -12t185 -12h837l-61 -441h-148l23 310h-551l-74 -523h441l-19 -135h-442l-72 -514h559l62 291h149l-59 -422h-895q-41 0 -161.5 -12.5t-178.5 -12.5q-277 0 -425.5 151.5t-148.5 434.5zM301 567q0 -216 111 -334 t305 -118q53 0 150.5 7.5t136.5 8.5l163 1172q-43 2 -146 9t-151 7q-258 0 -413.5 -206t-155.5 -546z" />
<glyph unicode="&#x153;" horiz-adv-x="1839" d="M51 395q0 293 162.5 472.5t427.5 179.5q133 0 228.5 -52t142.5 -149q79 93 189.5 144.5t238.5 51.5q171 0 264.5 -77.5t93.5 -216.5q0 -143 -124 -238.5t-298 -95.5q-187 0 -332 67q0 -9 -1 -28.5t-1 -28.5q0 -147 88.5 -235.5t235.5 -88.5q167 0 311 64l23 -117 q-196 -80 -393 -80q-136 0 -239 53t-159 150q-159 -195 -436 -195q-201 0 -311.5 110.5t-110.5 309.5zM242 399q0 -138 65 -213t185 -75q170 0 272 141t102 375q0 136 -63 209t-182 73q-172 0 -275.5 -140t-103.5 -370zM1063 586q125 -64 285 -64q113 0 194.5 58.5 t81.5 148.5q0 85 -54 134.5t-153 49.5q-128 0 -223 -89t-131 -238z" />
<glyph unicode="&#x178;" horiz-adv-x="1423" d="M135 1303l19 131h567l-19 -131h-174l232 -576l395 576h-166l19 131h520l-19 -131h-174l-526 -740l-59 -432h211l-19 -131h-618l18 131h213l61 432l-301 740h-180zM526 1724q0 61 40 101.5t100 40.5q47 0 76.5 -29t29.5 -74q0 -61 -40 -101t-99 -40q-49 0 -78 28.5 t-29 73.5zM979 1724q0 61 39.5 101.5t99.5 40.5q47 0 77 -29t30 -74q0 -61 -40.5 -101t-99.5 -40q-49 0 -77.5 28.5t-28.5 73.5z" />
<glyph unicode="&#x2c6;" horiz-adv-x="770" d="M166 1200l266 293h162l186 -293h-162l-114 191l-8 2l-170 -193h-160z" />
<glyph unicode="&#x2dc;" horiz-adv-x="858" d="M182 1260l8 63q12 80 61 122t130 42q58 0 160.5 -48t152.5 -48q53 0 82 24t39 78l103 -14l-11 -62q-9 -78 -62 -122t-138 -44q-45 0 -93 15t-81 33.5t-71.5 33.5t-68.5 15q-47 0 -72 -24t-36 -77z" />
<glyph unicode="&#x2000;" horiz-adv-x="1014" />
<glyph unicode="&#x2001;" horiz-adv-x="2028" />
<glyph unicode="&#x2002;" horiz-adv-x="1014" />
<glyph unicode="&#x2003;" horiz-adv-x="2028" />
<glyph unicode="&#x2004;" horiz-adv-x="676" />
<glyph unicode="&#x2005;" horiz-adv-x="507" />
<glyph unicode="&#x2006;" horiz-adv-x="338" />
<glyph unicode="&#x2007;" horiz-adv-x="338" />
<glyph unicode="&#x2008;" horiz-adv-x="253" />
<glyph unicode="&#x2009;" horiz-adv-x="405" />
<glyph unicode="&#x200a;" horiz-adv-x="112" />
<glyph unicode="&#x2010;" horiz-adv-x="917" d="M68 446l20 136h764l-21 -136h-763z" />
<glyph unicode="&#x2011;" horiz-adv-x="917" d="M68 446l20 136h764l-21 -136h-763z" />
<glyph unicode="&#x2012;" horiz-adv-x="917" d="M68 446l20 136h764l-21 -136h-763z" />
<glyph unicode="&#x2013;" horiz-adv-x="1075" d="M70 446l16 136h915l-16 -136h-915z" />
<glyph unicode="&#x2014;" horiz-adv-x="1546" d="M72 446l16 136h1374l-18 -136h-1372z" />
<glyph unicode="&#x2018;" horiz-adv-x="387" d="M172 1116q0 117 51.5 225t173.5 232l92 -55q-141 -177 -141 -365q0 -38 17 -104l-177 -43q-16 56 -16 110z" />
<glyph unicode="&#x2019;" horiz-adv-x="387" d="M117 1065q139 172 139 362q0 50 -14 107l176 43q16 -56 16 -113q0 -115 -51.5 -223.5t-173.5 -230.5z" />
<glyph unicode="&#x201a;" horiz-adv-x="299" d="M-111 -332q142 175 142 365q0 31 -15 104l174 43q17 -60 17 -112q0 -115 -51.5 -224t-173.5 -231z" />
<glyph unicode="&#x201c;" horiz-adv-x="796" d="M209 1116q0 117 51.5 225t173.5 232l92 -55q-139 -174 -139 -365q0 -49 14 -104l-176 -43q-16 56 -16 110zM621 1116q0 117 51.5 225t173.5 232l92 -55q-141 -177 -141 -365q0 -42 16 -104l-176 -43q-16 56 -16 110z" />
<glyph unicode="&#x201d;" horiz-adv-x="786" d="M117 1065q139 172 139 362q0 50 -14 107l176 43q16 -56 16 -113q0 -115 -51.5 -223.5t-173.5 -230.5zM516 1065q141 174 141 362q0 50 -14 107l176 43q15 -53 15 -113q0 -115 -51.5 -224t-172.5 -230z" />
<glyph unicode="&#x201e;" horiz-adv-x="704" d="M-111 -332q142 175 142 365q0 31 -15 104l174 43q17 -60 17 -112q0 -115 -51.5 -224t-173.5 -231zM293 -332q141 174 141 365q0 49 -14 104l176 43q14 -49 14 -112q0 -116 -51 -225t-172 -230z" />
<glyph unicode="&#x2022;" horiz-adv-x="638" d="M76 473q0 120 79 199.5t199 79.5q96 0 152.5 -55t56.5 -146q0 -120 -79 -199.5t-199 -79.5q-96 0 -152.5 55.5t-56.5 145.5z" />
<glyph unicode="&#x2026;" horiz-adv-x="1370" d="M20 80q0 62 40.5 102.5t101.5 40.5q49 0 78.5 -29t29.5 -75q0 -61 -40.5 -102.5t-100.5 -41.5q-49 0 -79 30t-30 75zM504 80q0 62 40 102.5t101 40.5q49 0 79 -29t30 -75q0 -61 -41 -102.5t-101 -41.5q-49 0 -78.5 30t-29.5 75zM983 80q0 62 40.5 102.5t100.5 40.5 q49 0 79 -29t30 -75q0 -61 -40.5 -102.5t-100.5 -41.5q-49 0 -79 30t-30 75z" />
<glyph unicode="&#x202f;" horiz-adv-x="405" />
<glyph unicode="&#x2039;" horiz-adv-x="630" d="M70 514l415 471l107 -82l-318 -395l205 -397l-127 -72z" />
<glyph unicode="&#x203a;" horiz-adv-x="630" d="M41 121l315 397l-204 395l127 72l282 -475l-416 -471z" />
<glyph unicode="&#x205f;" horiz-adv-x="507" />
<glyph unicode="&#x20ac;" horiz-adv-x="1345" d="M25 465l22 113h166q0 108 23 223h-164l22 112h172q82 252 269 398.5t432 146.5q234 0 430 -80l-80 -407h-127l43 297q-119 41 -264 41q-168 0 -302 -105.5t-202 -290.5h514l-23 -112h-524q-22 -107 -22 -221v-2h516l-21 -113h-485q28 -164 131 -257t266 -93 q104 0 181 10.5t184 36.5v-131q-127 -31 -218.5 -43.5t-203.5 -12.5q-230 0 -372 132t-169 358h-194z" />
<glyph unicode="&#x2122;" horiz-adv-x="1871" d="M156 1221l30 213h695l-31 -213h-86l8 129h-186l-78 -553h121l-15 -88h-376l12 88h121l80 553h-181l-26 -129h-88zM768 711l12 86h90l166 553h-94l12 84h281l88 -557l260 557h281l-13 -84h-114l16 -553h102l-12 -86h-309l14 86h84l-14 471l-268 -557h-136l-94 581 l-151 -495h78l-13 -86h-266z" />
<glyph unicode="&#x25fc;" horiz-adv-x="1024" d="M0 0v1024h1024v-1024h-1024z" />
</font>
</defs>
</svg>
